<?xml version="1.0" standalone="no"?>
<!DOCTYPE svg PUBLIC "-//W3C//DTD SVG 20010904//EN"
 "http://www.w3.org/TR/2001/REC-SVG-20010904/DTD/svg10.dtd">
<svg version="1.0" xmlns="http://www.w3.org/2000/svg"
 width="150.000000pt" height="32.000000pt" viewBox="0 0 359.000000 134.000000"
 preserveAspectRatio="xMidYMid meet">

<g transform="translate(0.000000,134.000000) scale(0.100000,-0.100000)"
fill="#000000" stroke="none">
<path d="M251 907 c-64 -23 -91 -119 -52 -183 14 -23 31 -34 67 -43 27 -7 57
-20 67 -28 41 -38 1 -127 -56 -121 -16 2 -35 11 -41 21 -9 15 -5 23 22 48 18
16 30 29 27 29 -13 0 -82 -40 -94 -54 -29 -35 16 -76 85 -76 46 0 90 23 108
58 9 15 15 21 16 13 0 -7 -15 -28 -33 -45 l-33 -31 48 3 c41 3 47 6 37 18 -9
11 -9 24 0 55 12 40 12 40 58 37 42 -3 48 -6 59 -35 12 -28 11 -34 -8 -58
l-21 -27 23 7 c27 9 106 8 120 0 6 -4 10 -4 10 -1 0 3 -12 11 -26 19 -21 11
-33 37 -70 148 -25 76 -42 144 -39 157 5 19 1 22 -25 22 -16 0 -29 -3 -28 -7
2 -5 -10 -52 -26 -106 l-29 -97 -16 47 c-16 47 -18 49 -80 69 -87 28 -112 66
-73 113 23 28 71 37 97 18 19 -14 18 -15 -8 -10 -35 7 -57 -12 -57 -48 0 -19
8 -34 25 -45 23 -15 27 -15 50 0 15 10 30 35 38 64 14 45 14 47 -8 59 -35 19
-97 24 -134 10z m93 -75 c-1 -28 4 -28 16 1 6 15 9 17 9 6 1 -9 -8 -27 -18
-40 -16 -20 -23 -22 -38 -13 -23 14 -28 41 -12 60 17 21 44 13 43 -14z m160
-169 c7 -32 7 -33 -28 -33 l-35 0 14 41 c26 73 32 72 49 -8z"/>
<path d="M1930 878 c-60 -31 -91 -87 -98 -178 -5 -80 7 -123 49 -168 34 -36
66 -52 107 -52 24 -1 23 -2 -11 -14 -97 -35 -131 -101 -87 -173 24 -39 58 -62
101 -69 43 -6 77 12 106 55 30 45 29 75 -3 100 -45 35 -124 22 -124 -19 0 -20
0 -20 20 0 38 38 90 20 90 -30 0 -27 -34 -67 -60 -70 -55 -8 -100 30 -100 84
0 42 24 62 88 72 43 7 102 45 102 66 0 6 -15 9 -37 5 l-38 -5 38 15 c37 16 37
16 37 74 0 61 6 73 60 112 18 12 19 15 4 8 -41 -20 -118 -23 -162 -8 l-43 15
40 -37 c33 -31 41 -45 41 -73 0 -50 -29 -83 -63 -74 -72 18 -112 172 -69 269
27 60 60 81 115 74 49 -7 77 -35 77 -79 0 -65 -45 -91 -75 -44 -13 19 -14 28
-4 50 7 14 18 26 25 26 17 0 37 -37 28 -53 -5 -9 -4 -9 6 0 11 10 11 18 2 38
-14 30 -51 34 -75 7 -24 -26 -21 -59 8 -87 70 -71 169 31 109 112 -53 71 -129
90 -204 51z"/>
<path d="M1032 830 l28 -25 0 -134 c0 -105 -3 -138 -15 -151 -13 -15 -7 -16
78 -12 98 4 122 14 161 66 42 55 31 212 -16 243 -7 4 -63 10 -125 14 -61 3
-117 9 -125 15 -8 5 -1 -2 14 -16z m173 -30 c71 -27 74 -205 4 -254 -13 -9
-40 -16 -61 -16 l-38 0 0 140 0 140 34 0 c19 0 46 -4 61 -10z"/>
<path d="M2679 848 c13 -17 8 -18 -78 -18 -51 0 -102 5 -114 11 -16 7 -14 4 6
-11 l27 -22 0 -138 c0 -125 -2 -141 -19 -157 -19 -17 -16 -18 81 -15 77 3 98
1 92 -9 -4 -8 -3 -10 4 -5 7 4 12 28 11 54 -1 43 -1 45 -11 20 -9 -25 -14 -28
-59 -28 l-49 0 0 65 0 65 35 0 c28 0 38 -5 45 -22 7 -18 9 -11 9 32 0 44 -2
50 -10 32 -7 -19 -15 -23 -41 -20 -33 3 -33 4 -36 61 -3 65 5 74 63 63 27 -5
35 -12 35 -29 0 -18 2 -19 10 -7 5 8 10 25 10 38 0 24 10 28 28 10 19 -19 16
-277 -3 -298 -13 -15 -7 -16 78 -12 98 4 122 14 161 66 42 55 31 212 -16 243
-7 4 -63 10 -125 14 -75 3 -117 10 -130 20 -16 13 -17 13 -4 -3z m196 -48 c71
-27 74 -205 4 -254 -13 -9 -40 -16 -61 -16 l-38 0 0 140 0 140 34 0 c19 0 46
-4 61 -10z"/>
<path d="M703 830 l27 -22 0 -143 0 -143 -27 -21 -28 -21 28 10 c16 5 40 10
54 10 21 0 23 3 14 14 -8 9 -11 50 -9 117 l3 104 72 -106 c74 -110 98 -139
114 -139 5 0 9 66 9 155 0 144 1 156 21 174 l21 19 -43 -5 c-53 -7 -59 -11
-36 -24 14 -8 17 -25 17 -110 0 -64 -4 -98 -10 -94 -5 3 -42 55 -81 116 -64
98 -75 109 -101 109 -16 0 -39 5 -51 11 -16 7 -14 4 6 -11z"/>
<path d="M1324 825 c25 -24 26 -27 26 -154 0 -129 0 -130 -27 -155 l-27 -26
36 10 c24 7 51 7 80 1 l43 -10 -27 20 -28 21 0 139 0 139 25 0 c59 0 72 -102
15 -123 l-28 -11 41 -83 c39 -78 43 -83 74 -83 l32 0 -39 73 c-46 83 -47 93
-19 115 12 10 22 34 26 58 8 59 -11 74 -95 74 -37 0 -82 4 -101 10 l-33 9 26
-24z"/>
<path d="M2174 819 c30 -35 30 -33 26 -160 -2 -88 0 -98 21 -123 28 -32 90
-44 129 -24 44 23 60 71 60 186 0 98 1 104 26 127 l25 24 -35 -11 -34 -11 -4
-122 c-3 -137 -15 -165 -70 -165 -55 0 -68 27 -68 146 0 58 5 114 10 125 10
17 7 19 -24 19 -19 0 -47 5 -61 10 l-27 10 26 -31z"/>
<path d="M2983 830 l27 -22 0 -138 c0 -125 -2 -141 -19 -157 -19 -17 -16 -18
85 -15 l104 3 -1 42 c-1 40 -1 41 -11 15 -9 -25 -14 -28 -59 -28 l-49 0 0 65
0 65 35 0 c28 0 38 -5 45 -22 7 -18 9 -11 9 32 0 44 -2 50 -10 32 -7 -19 -15
-23 -41 -20 -33 3 -33 4 -36 61 -3 65 5 74 63 63 27 -5 35 -12 35 -29 0 -18 2
-19 10 -7 5 8 10 25 10 38 0 21 -3 22 -91 22 -50 0 -100 5 -112 11 -16 7 -14
4 6 -11z"/>
<path d="M1601 822 c-50 -25 -71 -72 -71 -157 0 -52 5 -78 20 -102 56 -93 192
-79 236 24 21 49 18 151 -6 190 -36 60 -112 80 -179 45z m87 -13 c80 -28 85
-242 6 -278 -60 -27 -114 41 -114 142 0 69 21 124 52 137 13 5 23 9 24 9 1 1
15 -4 32 -10z"/>
<path d="M3270 827 c-45 -23 -63 -88 -38 -141 8 -19 26 -30 67 -43 52 -17 56
-20 59 -51 5 -54 -34 -85 -82 -66 -20 8 -21 42 -2 63 13 14 10 16 -34 16 -44
0 -47 -2 -34 -16 8 -8 14 -27 14 -42 0 -76 135 -74 175 3 33 64 2 150 -54 150
-75 0 -104 76 -41 110 41 22 68 -23 36 -59 -13 -14 -9 -16 39 -16 52 0 53 1
34 18 -10 10 -19 31 -19 46 0 21 -6 30 -22 35 -36 9 -71 7 -98 -7z"/>
</g>
</svg>
